<svg xmlns="http://www.w3.org/2000/svg" width="14" height="14" viewBox="0 0 14 14"><g><g><path fill="#004fac" d="M13.717 11.073L11.55 8.906c-.432-.43-1.147-.417-1.593.03l-1.092 1.092-.215-.12c-.69-.382-1.633-.906-2.626-1.9-.996-.995-1.52-1.94-1.903-2.63l-.118-.21.733-.732.36-.36c.447-.448.46-1.163.03-1.594L2.957.314c-.43-.43-1.146-.417-1.593.03L.755.96.77.975a3.532 3.532 0 0 0-.503.888 3.68 3.68 0 0 0-.224.9c-.286 2.372.798 4.54 3.74 7.482 4.066 4.066 7.343 3.76 7.484 3.744a3.66 3.66 0 0 0 .903-.227 3.52 3.52 0 0 0 .885-.5l.013.011.619-.606c.446-.447.46-1.162.029-1.594z"/></g></g></svg>