<svg xmlns="http://www.w3.org/2000/svg" width="20" height="20" viewBox="0 0 20 20"><g><g><path fill="#d9d9d9" d="M16.952 16.74h-3.018v-4.83c0-1.21-.433-2-1.53-2A1.66 1.66 0 0 0 10.855 11a1.989 1.989 0 0 0-.1.73v5H7.735v-9h3.018V9a3.022 3.022 0 0 1 2.727-1.5c2.012 0 3.47 1.29 3.47 4.06zM4.557 6.48c-.866 0-1.57-.698-1.57-1.56 0-.862.704-1.56 1.57-1.56a1.583 1.583 0 0 1 1.515.724c.324.511.324 1.16 0 1.672-.323.51-.912.792-1.515.724zm1.51 10.26H3.047v-9h3.018zM1.478 0a1.455 1.455 0 0 0-1.48 1.43v17.14c.012.8.674 1.441 1.48 1.43H18.52A1.455 1.455 0 0 0 20 18.57V1.43A1.455 1.455 0 0 0 18.52 0z"/></g></g></svg>