<svg xmlns="http://www.w3.org/2000/svg" width="577" height="642" viewBox="0 0 577 642"><defs><clipPath id="qaz7a"><path d="M.374 661.128v-661H577v661z"/></clipPath></defs><g><g><g/><g clip-path="url(#qaz7a)"><g><path fill="#ddd" d="M.374 1.128a1 1 0 1 1 2 0 1 1 0 0 1-2 0z"/></g></g><g clip-path="url(#qaz7a)"><g><path fill="#ddd" d="M32.374 1.128a1 1 0 1 1 2 0 1 1 0 0 1-2 0z"/></g></g><g clip-path="url(#qaz7a)"><g><path fill="#ddd" d="M64.374 1.128a1 1 0 1 1 2 0 1 1 0 0 1-2 0z"/></g></g><g clip-path="url(#qaz7a)"><g><path fill="#ddd" d="M96.374 1.128a1 1 0 1 1 2 0 1 1 0 0 1-2 0z"/></g></g><g clip-path="url(#qaz7a)"><g><path fill="#ddd" d="M128.374 1.128a1 1 0 1 1 2 0 1 1 0 0 1-2 0z"/></g></g><g clip-path="url(#qaz7a)"><g><path fill="#ddd" d="M160.374 1.128a1 1 0 1 1 2 0 1 1 0 0 1-2 0z"/></g></g><g clip-path="url(#qaz7a)"><g><path fill="#ddd" d="M192.374 1.128a1 1 0 1 1 2 0 1 1 0 0 1-2 0z"/></g></g><g clip-path="url(#qaz7a)"><g><path fill="#ddd" d="M224.374 1.128a1 1 0 1 1 2 0 1 1 0 0 1-2 0z"/></g></g><g clip-path="url(#qaz7a)"><g><path fill="#ddd" d="M256.374 1.128a1 1 0 1 1 2 0 1 1 0 0 1-2 0z"/></g></g><g clip-path="url(#qaz7a)"><g><path fill="#ddd" d="M288.374 1.128a1 1 0 1 1 2 0 1 1 0 0 1-2 0z"/></g></g><g clip-path="url(#qaz7a)"><g><path fill="#ddd" d="M320.374 1.128a1 1 0 1 1 2 0 1 1 0 0 1-2 0z"/></g></g><g clip-path="url(#qaz7a)"><g><path fill="#ddd" d="M352.374 1.128a1 1 0 1 1 2 0 1 1 0 0 1-2 0z"/></g></g><g clip-path="url(#qaz7a)"><g><path fill="#ddd" d="M384.374 1.128a1 1 0 1 1 2 0 1 1 0 0 1-2 0z"/></g></g><g clip-path="url(#qaz7a)"><g><path fill="#ddd" d="M416.374 1.128a1 1 0 1 1 2 0 1 1 0 0 1-2 0z"/></g></g><g clip-path="url(#qaz7a)"><g><path fill="#ddd" d="M448.374 1.128a1 1 0 1 1 2 0 1 1 0 0 1-2 0z"/></g></g><g clip-path="url(#qaz7a)"><g><path fill="#ddd" d="M480.374 1.128a1 1 0 1 1 2 0 1 1 0 0 1-2 0z"/></g></g><g clip-path="url(#qaz7a)"><g><path fill="#ddd" d="M512.374 1.128a1 1 0 1 1 2 0 1 1 0 0 1-2 0z"/></g></g><g clip-path="url(#qaz7a)"><g><path fill="#ddd" d="M544.374 1.128a1 1 0 1 1 2 0 1 1 0 0 1-2 0z"/></g></g><g clip-path="url(#qaz7a)"><g><path fill="#ddd" d="M576.374 1.128a1 1 0 1 1 2 0 1 1 0 0 1-2 0z"/></g></g><g clip-path="url(#qaz7a)"><g><path fill="#ddd" d="M.374 33.128a1 1 0 1 1 2 0 1 1 0 0 1-2 0z"/></g></g><g clip-path="url(#qaz7a)"><g><path fill="#ddd" d="M32.374 33.128a1 1 0 1 1 2 0 1 1 0 0 1-2 0z"/></g></g><g clip-path="url(#qaz7a)"><g><path fill="#ddd" d="M64.374 33.128a1 1 0 1 1 2 0 1 1 0 0 1-2 0z"/></g></g><g clip-path="url(#qaz7a)"><g><path fill="#ddd" d="M96.374 33.128a1 1 0 1 1 2 0 1 1 0 0 1-2 0z"/></g></g><g clip-path="url(#qaz7a)"><g><path fill="#ddd" d="M128.374 33.128a1 1 0 1 1 2 0 1 1 0 0 1-2 0z"/></g></g><g clip-path="url(#qaz7a)"><g><path fill="#ddd" d="M160.374 33.128a1 1 0 1 1 2 0 1 1 0 0 1-2 0z"/></g></g><g clip-path="url(#qaz7a)"><g><path fill="#ddd" d="M192.374 33.128a1 1 0 1 1 2 0 1 1 0 0 1-2 0z"/></g></g><g clip-path="url(#qaz7a)"><g><path fill="#ddd" d="M224.374 33.128a1 1 0 1 1 2 0 1 1 0 0 1-2 0z"/></g></g><g clip-path="url(#qaz7a)"><g><path fill="#ddd" d="M256.374 33.128a1 1 0 1 1 2 0 1 1 0 0 1-2 0z"/></g></g><g clip-path="url(#qaz7a)"><g><path fill="#ddd" d="M288.374 33.128a1 1 0 1 1 2 0 1 1 0 0 1-2 0z"/></g></g><g clip-path="url(#qaz7a)"><g><path fill="#ddd" d="M320.374 33.128a1 1 0 1 1 2 0 1 1 0 0 1-2 0z"/></g></g><g clip-path="url(#qaz7a)"><g><path fill="#ddd" d="M352.374 33.128a1 1 0 1 1 2 0 1 1 0 0 1-2 0z"/></g></g><g clip-path="url(#qaz7a)"><g><path fill="#ddd" d="M384.374 33.128a1 1 0 1 1 2 0 1 1 0 0 1-2 0z"/></g></g><g clip-path="url(#qaz7a)"><g><path fill="#ddd" d="M416.374 33.128a1 1 0 1 1 2 0 1 1 0 0 1-2 0z"/></g></g><g clip-path="url(#qaz7a)"><g><path fill="#ddd" d="M448.374 33.128a1 1 0 1 1 2 0 1 1 0 0 1-2 0z"/></g></g><g clip-path="url(#qaz7a)"><g><path fill="#ddd" d="M480.374 33.128a1 1 0 1 1 2 0 1 1 0 0 1-2 0z"/></g></g><g clip-path="url(#qaz7a)"><g><path fill="#ddd" d="M512.374 33.128a1 1 0 1 1 2 0 1 1 0 0 1-2 0z"/></g></g><g clip-path="url(#qaz7a)"><g><path fill="#ddd" d="M544.374 33.128a1 1 0 1 1 2 0 1 1 0 0 1-2 0z"/></g></g><g clip-path="url(#qaz7a)"><g><path fill="#ddd" d="M576.374 33.128a1 1 0 1 1 2 0 1 1 0 0 1-2 0z"/></g></g><g clip-path="url(#qaz7a)"><g><path fill="#ddd" d="M.374 65.128a1 1 0 1 1 2 0 1 1 0 0 1-2 0z"/></g></g><g clip-path="url(#qaz7a)"><g><path fill="#ddd" d="M32.374 65.128a1 1 0 1 1 2 0 1 1 0 0 1-2 0z"/></g></g><g clip-path="url(#qaz7a)"><g><path fill="#ddd" d="M64.374 65.128a1 1 0 1 1 2 0 1 1 0 0 1-2 0z"/></g></g><g clip-path="url(#qaz7a)"><g><path fill="#ddd" d="M96.374 65.128a1 1 0 1 1 2 0 1 1 0 0 1-2 0z"/></g></g><g clip-path="url(#qaz7a)"><g><path fill="#ddd" d="M128.374 65.128a1 1 0 1 1 2 0 1 1 0 0 1-2 0z"/></g></g><g clip-path="url(#qaz7a)"><g><path fill="#ddd" d="M160.374 65.128a1 1 0 1 1 2 0 1 1 0 0 1-2 0z"/></g></g><g clip-path="url(#qaz7a)"><g><path fill="#ddd" d="M192.374 65.128a1 1 0 1 1 2 0 1 1 0 0 1-2 0z"/></g></g><g clip-path="url(#qaz7a)"><g><path fill="#ddd" d="M224.374 65.128a1 1 0 1 1 2 0 1 1 0 0 1-2 0z"/></g></g><g clip-path="url(#qaz7a)"><g><path fill="#ddd" d="M256.374 65.128a1 1 0 1 1 2 0 1 1 0 0 1-2 0z"/></g></g><g clip-path="url(#qaz7a)"><g><path fill="#ddd" d="M288.374 65.128a1 1 0 1 1 2 0 1 1 0 0 1-2 0z"/></g></g><g clip-path="url(#qaz7a)"><g><path fill="#ddd" d="M320.374 65.128a1 1 0 1 1 2 0 1 1 0 0 1-2 0z"/></g></g><g clip-path="url(#qaz7a)"><g><path fill="#ddd" d="M352.374 65.128a1 1 0 1 1 2 0 1 1 0 0 1-2 0z"/></g></g><g clip-path="url(#qaz7a)"><g><path fill="#ddd" d="M384.374 65.128a1 1 0 1 1 2 0 1 1 0 0 1-2 0z"/></g></g><g clip-path="url(#qaz7a)"><g><path fill="#ddd" d="M416.374 65.128a1 1 0 1 1 2 0 1 1 0 0 1-2 0z"/></g></g><g clip-path="url(#qaz7a)"><g><path fill="#ddd" d="M448.374 65.128a1 1 0 1 1 2 0 1 1 0 0 1-2 0z"/></g></g><g clip-path="url(#qaz7a)"><g><path fill="#ddd" d="M480.374 65.128a1 1 0 1 1 2 0 1 1 0 0 1-2 0z"/></g></g><g clip-path="url(#qaz7a)"><g><path fill="#ddd" d="M512.374 65.128a1 1 0 1 1 2 0 1 1 0 0 1-2 0z"/></g></g><g clip-path="url(#qaz7a)"><g><path fill="#ddd" d="M544.374 65.128a1 1 0 1 1 2 0 1 1 0 0 1-2 0z"/></g></g><g clip-path="url(#qaz7a)"><g><path fill="#ddd" d="M576.374 65.128a1 1 0 1 1 2 0 1 1 0 0 1-2 0z"/></g></g><g clip-path="url(#qaz7a)"><g><path fill="#ddd" d="M.374 97.128a1 1 0 1 1 2 0 1 1 0 0 1-2 0z"/></g></g><g clip-path="url(#qaz7a)"><g><path fill="#ddd" d="M32.374 97.128a1 1 0 1 1 2 0 1 1 0 0 1-2 0z"/></g></g><g clip-path="url(#qaz7a)"><g><path fill="#ddd" d="M64.374 97.128a1 1 0 1 1 2 0 1 1 0 0 1-2 0z"/></g></g><g clip-path="url(#qaz7a)"><g><path fill="#ddd" d="M96.374 97.128a1 1 0 1 1 2 0 1 1 0 0 1-2 0z"/></g></g><g clip-path="url(#qaz7a)"><g><path fill="#ddd" d="M128.374 97.128a1 1 0 1 1 2 0 1 1 0 0 1-2 0z"/></g></g><g clip-path="url(#qaz7a)"><g><path fill="#ddd" d="M160.374 97.128a1 1 0 1 1 2 0 1 1 0 0 1-2 0z"/></g></g><g clip-path="url(#qaz7a)"><g><path fill="#ddd" d="M192.374 97.128a1 1 0 1 1 2 0 1 1 0 0 1-2 0z"/></g></g><g clip-path="url(#qaz7a)"><g><path fill="#ddd" d="M224.374 97.128a1 1 0 1 1 2 0 1 1 0 0 1-2 0z"/></g></g><g clip-path="url(#qaz7a)"><g><path fill="#ddd" d="M256.374 97.128a1 1 0 1 1 2 0 1 1 0 0 1-2 0z"/></g></g><g clip-path="url(#qaz7a)"><g><path fill="#ddd" d="M288.374 97.128a1 1 0 1 1 2 0 1 1 0 0 1-2 0z"/></g></g><g clip-path="url(#qaz7a)"><g><path fill="#ddd" d="M320.374 97.128a1 1 0 1 1 2 0 1 1 0 0 1-2 0z"/></g></g><g clip-path="url(#qaz7a)"><g><path fill="#ddd" d="M352.374 97.128a1 1 0 1 1 2 0 1 1 0 0 1-2 0z"/></g></g><g clip-path="url(#qaz7a)"><g><path fill="#ddd" d="M384.374 97.128a1 1 0 1 1 2 0 1 1 0 0 1-2 0z"/></g></g><g clip-path="url(#qaz7a)"><g><path fill="#ddd" d="M416.374 97.128a1 1 0 1 1 2 0 1 1 0 0 1-2 0z"/></g></g><g clip-path="url(#qaz7a)"><g><path fill="#ddd" d="M448.374 97.128a1 1 0 1 1 2 0 1 1 0 0 1-2 0z"/></g></g><g clip-path="url(#qaz7a)"><g><path fill="#ddd" d="M480.374 97.128a1 1 0 1 1 2 0 1 1 0 0 1-2 0z"/></g></g><g clip-path="url(#qaz7a)"><g><path fill="#ddd" d="M512.374 97.128a1 1 0 1 1 2 0 1 1 0 0 1-2 0z"/></g></g><g clip-path="url(#qaz7a)"><g><path fill="#ddd" d="M544.374 97.128a1 1 0 1 1 2 0 1 1 0 0 1-2 0z"/></g></g><g clip-path="url(#qaz7a)"><g><path fill="#ddd" d="M576.374 97.128a1 1 0 1 1 2 0 1 1 0 0 1-2 0z"/></g></g><g clip-path="url(#qaz7a)"><g><path fill="#ddd" d="M.374 129.128a1 1 0 1 1 2 0 1 1 0 0 1-2 0z"/></g></g><g clip-path="url(#qaz7a)"><g><path fill="#ddd" d="M32.374 129.128a1 1 0 1 1 2 0 1 1 0 0 1-2 0z"/></g></g><g clip-path="url(#qaz7a)"><g><path fill="#ddd" d="M64.374 129.128a1 1 0 1 1 2 0 1 1 0 0 1-2 0z"/></g></g><g clip-path="url(#qaz7a)"><g><path fill="#ddd" d="M96.374 129.128a1 1 0 1 1 2 0 1 1 0 0 1-2 0z"/></g></g><g clip-path="url(#qaz7a)"><g><path fill="#ddd" d="M128.374 129.128a1 1 0 1 1 2 0 1 1 0 0 1-2 0z"/></g></g><g clip-path="url(#qaz7a)"><g><path fill="#ddd" d="M160.374 129.128a1 1 0 1 1 2 0 1 1 0 0 1-2 0z"/></g></g><g clip-path="url(#qaz7a)"><g><path fill="#ddd" d="M192.374 129.128a1 1 0 1 1 2 0 1 1 0 0 1-2 0z"/></g></g><g clip-path="url(#qaz7a)"><g><path fill="#ddd" d="M224.374 129.128a1 1 0 1 1 2 0 1 1 0 0 1-2 0z"/></g></g><g clip-path="url(#qaz7a)"><g><path fill="#ddd" d="M256.374 129.128a1 1 0 1 1 2 0 1 1 0 0 1-2 0z"/></g></g><g clip-path="url(#qaz7a)"><g><path fill="#ddd" d="M288.374 129.128a1 1 0 1 1 2 0 1 1 0 0 1-2 0z"/></g></g><g clip-path="url(#qaz7a)"><g><path fill="#ddd" d="M320.374 129.128a1 1 0 1 1 2 0 1 1 0 0 1-2 0z"/></g></g><g clip-path="url(#qaz7a)"><g><path fill="#ddd" d="M352.374 129.128a1 1 0 1 1 2 0 1 1 0 0 1-2 0z"/></g></g><g clip-path="url(#qaz7a)"><g><path fill="#ddd" d="M384.374 129.128a1 1 0 1 1 2 0 1 1 0 0 1-2 0z"/></g></g><g clip-path="url(#qaz7a)"><g><path fill="#ddd" d="M416.374 129.128a1 1 0 1 1 2 0 1 1 0 0 1-2 0z"/></g></g><g clip-path="url(#qaz7a)"><g><path fill="#ddd" d="M448.374 129.128a1 1 0 1 1 2 0 1 1 0 0 1-2 0z"/></g></g><g clip-path="url(#qaz7a)"><g><path fill="#ddd" d="M480.374 129.128a1 1 0 1 1 2 0 1 1 0 0 1-2 0z"/></g></g><g clip-path="url(#qaz7a)"><g><path fill="#ddd" d="M512.374 129.128a1 1 0 1 1 2 0 1 1 0 0 1-2 0z"/></g></g><g clip-path="url(#qaz7a)"><g><path fill="#ddd" d="M544.374 129.128a1 1 0 1 1 2 0 1 1 0 0 1-2 0z"/></g></g><g clip-path="url(#qaz7a)"><g><path fill="#ddd" d="M576.374 129.128a1 1 0 1 1 2 0 1 1 0 0 1-2 0z"/></g></g><g clip-path="url(#qaz7a)"><g><path fill="#ddd" d="M.374 161.128a1 1 0 1 1 2 0 1 1 0 0 1-2 0z"/></g></g><g clip-path="url(#qaz7a)"><g><path fill="#ddd" d="M32.374 161.128a1 1 0 1 1 2 0 1 1 0 0 1-2 0z"/></g></g><g clip-path="url(#qaz7a)"><g><path fill="#ddd" d="M64.374 161.128a1 1 0 1 1 2 0 1 1 0 0 1-2 0z"/></g></g><g clip-path="url(#qaz7a)"><g><path fill="#ddd" d="M96.374 161.128a1 1 0 1 1 2 0 1 1 0 0 1-2 0z"/></g></g><g clip-path="url(#qaz7a)"><g><path fill="#ddd" d="M128.374 161.128a1 1 0 1 1 2 0 1 1 0 0 1-2 0z"/></g></g><g clip-path="url(#qaz7a)"><g><path fill="#ddd" d="M160.374 161.128a1 1 0 1 1 2 0 1 1 0 0 1-2 0z"/></g></g><g clip-path="url(#qaz7a)"><g><path fill="#ddd" d="M192.374 161.128a1 1 0 1 1 2 0 1 1 0 0 1-2 0z"/></g></g><g clip-path="url(#qaz7a)"><g><path fill="#ddd" d="M224.374 161.128a1 1 0 1 1 2 0 1 1 0 0 1-2 0z"/></g></g><g clip-path="url(#qaz7a)"><g><path fill="#ddd" d="M256.374 161.128a1 1 0 1 1 2 0 1 1 0 0 1-2 0z"/></g></g><g clip-path="url(#qaz7a)"><g><path fill="#ddd" d="M288.374 161.128a1 1 0 1 1 2 0 1 1 0 0 1-2 0z"/></g></g><g clip-path="url(#qaz7a)"><g><path fill="#ddd" d="M320.374 161.128a1 1 0 1 1 2 0 1 1 0 0 1-2 0z"/></g></g><g clip-path="url(#qaz7a)"><g><path fill="#ddd" d="M352.374 161.128a1 1 0 1 1 2 0 1 1 0 0 1-2 0z"/></g></g><g clip-path="url(#qaz7a)"><g><path fill="#ddd" d="M384.374 161.128a1 1 0 1 1 2 0 1 1 0 0 1-2 0z"/></g></g><g clip-path="url(#qaz7a)"><g><path fill="#ddd" d="M416.374 161.128a1 1 0 1 1 2 0 1 1 0 0 1-2 0z"/></g></g><g clip-path="url(#qaz7a)"><g><path fill="#ddd" d="M448.374 161.128a1 1 0 1 1 2 0 1 1 0 0 1-2 0z"/></g></g><g clip-path="url(#qaz7a)"><g><path fill="#ddd" d="M480.374 161.128a1 1 0 1 1 2 0 1 1 0 0 1-2 0z"/></g></g><g clip-path="url(#qaz7a)"><g><path fill="#ddd" d="M512.374 161.128a1 1 0 1 1 2 0 1 1 0 0 1-2 0z"/></g></g><g clip-path="url(#qaz7a)"><g><path fill="#ddd" d="M544.374 161.128a1 1 0 1 1 2 0 1 1 0 0 1-2 0z"/></g></g><g clip-path="url(#qaz7a)"><g><path fill="#ddd" d="M576.374 161.128a1 1 0 1 1 2 0 1 1 0 0 1-2 0z"/></g></g><g clip-path="url(#qaz7a)"><g><path fill="#ddd" d="M.374 193.128a1 1 0 1 1 2 0 1 1 0 0 1-2 0z"/></g></g><g clip-path="url(#qaz7a)"><g><path fill="#ddd" d="M32.374 193.128a1 1 0 1 1 2 0 1 1 0 0 1-2 0z"/></g></g><g clip-path="url(#qaz7a)"><g><path fill="#ddd" d="M64.374 193.128a1 1 0 1 1 2 0 1 1 0 0 1-2 0z"/></g></g><g clip-path="url(#qaz7a)"><g><path fill="#ddd" d="M96.374 193.128a1 1 0 1 1 2 0 1 1 0 0 1-2 0z"/></g></g><g clip-path="url(#qaz7a)"><g><path fill="#ddd" d="M128.374 193.128a1 1 0 1 1 2 0 1 1 0 0 1-2 0z"/></g></g><g clip-path="url(#qaz7a)"><g><path fill="#ddd" d="M160.374 193.128a1 1 0 1 1 2 0 1 1 0 0 1-2 0z"/></g></g><g clip-path="url(#qaz7a)"><g><path fill="#ddd" d="M192.374 193.128a1 1 0 1 1 2 0 1 1 0 0 1-2 0z"/></g></g><g clip-path="url(#qaz7a)"><g><path fill="#ddd" d="M224.374 193.128a1 1 0 1 1 2 0 1 1 0 0 1-2 0z"/></g></g><g clip-path="url(#qaz7a)"><g><path fill="#ddd" d="M256.374 193.128a1 1 0 1 1 2 0 1 1 0 0 1-2 0z"/></g></g><g clip-path="url(#qaz7a)"><g><path fill="#ddd" d="M288.374 193.128a1 1 0 1 1 2 0 1 1 0 0 1-2 0z"/></g></g><g clip-path="url(#qaz7a)"><g><path fill="#ddd" d="M320.374 193.128a1 1 0 1 1 2 0 1 1 0 0 1-2 0z"/></g></g><g clip-path="url(#qaz7a)"><g><path fill="#ddd" d="M352.374 193.128a1 1 0 1 1 2 0 1 1 0 0 1-2 0z"/></g></g><g clip-path="url(#qaz7a)"><g><path fill="#ddd" d="M384.374 193.128a1 1 0 1 1 2 0 1 1 0 0 1-2 0z"/></g></g><g clip-path="url(#qaz7a)"><g><path fill="#ddd" d="M416.374 193.128a1 1 0 1 1 2 0 1 1 0 0 1-2 0z"/></g></g><g clip-path="url(#qaz7a)"><g><path fill="#ddd" d="M448.374 193.128a1 1 0 1 1 2 0 1 1 0 0 1-2 0z"/></g></g><g clip-path="url(#qaz7a)"><g><path fill="#ddd" d="M480.374 193.128a1 1 0 1 1 2 0 1 1 0 0 1-2 0z"/></g></g><g clip-path="url(#qaz7a)"><g><path fill="#ddd" d="M512.374 193.128a1 1 0 1 1 2 0 1 1 0 0 1-2 0z"/></g></g><g clip-path="url(#qaz7a)"><g><path fill="#ddd" d="M544.374 193.128a1 1 0 1 1 2 0 1 1 0 0 1-2 0z"/></g></g><g clip-path="url(#qaz7a)"><g><path fill="#ddd" d="M576.374 193.128a1 1 0 1 1 2 0 1 1 0 0 1-2 0z"/></g></g><g clip-path="url(#qaz7a)"><g><path fill="#ddd" d="M.374 225.128a1 1 0 1 1 2 0 1 1 0 0 1-2 0z"/></g></g><g clip-path="url(#qaz7a)"><g><path fill="#ddd" d="M32.374 225.128a1 1 0 1 1 2 0 1 1 0 0 1-2 0z"/></g></g><g clip-path="url(#qaz7a)"><g><path fill="#ddd" d="M64.374 225.128a1 1 0 1 1 2 0 1 1 0 0 1-2 0z"/></g></g><g clip-path="url(#qaz7a)"><g><path fill="#ddd" d="M96.374 225.128a1 1 0 1 1 2 0 1 1 0 0 1-2 0z"/></g></g><g clip-path="url(#qaz7a)"><g><path fill="#ddd" d="M128.374 225.128a1 1 0 1 1 2 0 1 1 0 0 1-2 0z"/></g></g><g clip-path="url(#qaz7a)"><g><path fill="#ddd" d="M160.374 225.128a1 1 0 1 1 2 0 1 1 0 0 1-2 0z"/></g></g><g clip-path="url(#qaz7a)"><g><path fill="#ddd" d="M192.374 225.128a1 1 0 1 1 2 0 1 1 0 0 1-2 0z"/></g></g><g clip-path="url(#qaz7a)"><g><path fill="#ddd" d="M224.374 225.128a1 1 0 1 1 2 0 1 1 0 0 1-2 0z"/></g></g><g clip-path="url(#qaz7a)"><g><path fill="#ddd" d="M256.374 225.128a1 1 0 1 1 2 0 1 1 0 0 1-2 0z"/></g></g><g clip-path="url(#qaz7a)"><g><path fill="#ddd" d="M288.374 225.128a1 1 0 1 1 2 0 1 1 0 0 1-2 0z"/></g></g><g clip-path="url(#qaz7a)"><g><path fill="#ddd" d="M320.374 225.128a1 1 0 1 1 2 0 1 1 0 0 1-2 0z"/></g></g><g clip-path="url(#qaz7a)"><g><path fill="#ddd" d="M352.374 225.128a1 1 0 1 1 2 0 1 1 0 0 1-2 0z"/></g></g><g clip-path="url(#qaz7a)"><g><path fill="#ddd" d="M384.374 225.128a1 1 0 1 1 2 0 1 1 0 0 1-2 0z"/></g></g><g clip-path="url(#qaz7a)"><g><path fill="#ddd" d="M416.374 225.128a1 1 0 1 1 2 0 1 1 0 0 1-2 0z"/></g></g><g clip-path="url(#qaz7a)"><g><path fill="#ddd" d="M448.374 225.128a1 1 0 1 1 2 0 1 1 0 0 1-2 0z"/></g></g><g clip-path="url(#qaz7a)"><g><path fill="#ddd" d="M480.374 225.128a1 1 0 1 1 2 0 1 1 0 0 1-2 0z"/></g></g><g clip-path="url(#qaz7a)"><g><path fill="#ddd" d="M512.374 225.128a1 1 0 1 1 2 0 1 1 0 0 1-2 0z"/></g></g><g clip-path="url(#qaz7a)"><g><path fill="#ddd" d="M544.374 225.128a1 1 0 1 1 2 0 1 1 0 0 1-2 0z"/></g></g><g clip-path="url(#qaz7a)"><g><path fill="#ddd" d="M576.374 225.128a1 1 0 1 1 2 0 1 1 0 0 1-2 0z"/></g></g><g clip-path="url(#qaz7a)"><g><path fill="#ddd" d="M.374 257.128a1 1 0 1 1 2 0 1 1 0 0 1-2 0z"/></g></g><g clip-path="url(#qaz7a)"><g><path fill="#ddd" d="M32.374 257.128a1 1 0 1 1 2 0 1 1 0 0 1-2 0z"/></g></g><g clip-path="url(#qaz7a)"><g><path fill="#ddd" d="M64.374 257.128a1 1 0 1 1 2 0 1 1 0 0 1-2 0z"/></g></g><g clip-path="url(#qaz7a)"><g><path fill="#ddd" d="M96.374 257.128a1 1 0 1 1 2 0 1 1 0 0 1-2 0z"/></g></g><g clip-path="url(#qaz7a)"><g><path fill="#ddd" d="M128.374 257.128a1 1 0 1 1 2 0 1 1 0 0 1-2 0z"/></g></g><g clip-path="url(#qaz7a)"><g><path fill="#ddd" d="M160.374 257.128a1 1 0 1 1 2 0 1 1 0 0 1-2 0z"/></g></g><g clip-path="url(#qaz7a)"><g><path fill="#ddd" d="M192.374 257.128a1 1 0 1 1 2 0 1 1 0 0 1-2 0z"/></g></g><g clip-path="url(#qaz7a)"><g><path fill="#ddd" d="M224.374 257.128a1 1 0 1 1 2 0 1 1 0 0 1-2 0z"/></g></g><g clip-path="url(#qaz7a)"><g><path fill="#ddd" d="M256.374 257.128a1 1 0 1 1 2 0 1 1 0 0 1-2 0z"/></g></g><g clip-path="url(#qaz7a)"><g><path fill="#ddd" d="M288.374 257.128a1 1 0 1 1 2 0 1 1 0 0 1-2 0z"/></g></g><g clip-path="url(#qaz7a)"><g><path fill="#ddd" d="M320.374 257.128a1 1 0 1 1 2 0 1 1 0 0 1-2 0z"/></g></g><g clip-path="url(#qaz7a)"><g><path fill="#ddd" d="M352.374 257.128a1 1 0 1 1 2 0 1 1 0 0 1-2 0z"/></g></g><g clip-path="url(#qaz7a)"><g><path fill="#ddd" d="M384.374 257.128a1 1 0 1 1 2 0 1 1 0 0 1-2 0z"/></g></g><g clip-path="url(#qaz7a)"><g><path fill="#ddd" d="M416.374 257.128a1 1 0 1 1 2 0 1 1 0 0 1-2 0z"/></g></g><g clip-path="url(#qaz7a)"><g><path fill="#ddd" d="M448.374 257.128a1 1 0 1 1 2 0 1 1 0 0 1-2 0z"/></g></g><g clip-path="url(#qaz7a)"><g><path fill="#ddd" d="M480.374 257.128a1 1 0 1 1 2 0 1 1 0 0 1-2 0z"/></g></g><g clip-path="url(#qaz7a)"><g><path fill="#ddd" d="M512.374 257.128a1 1 0 1 1 2 0 1 1 0 0 1-2 0z"/></g></g><g clip-path="url(#qaz7a)"><g><path fill="#ddd" d="M544.374 257.128a1 1 0 1 1 2 0 1 1 0 0 1-2 0z"/></g></g><g clip-path="url(#qaz7a)"><g><path fill="#ddd" d="M576.374 257.128a1 1 0 1 1 2 0 1 1 0 0 1-2 0z"/></g></g><g clip-path="url(#qaz7a)"><g><path fill="#ddd" d="M.374 289.128a1 1 0 1 1 2 0 1 1 0 0 1-2 0z"/></g></g><g clip-path="url(#qaz7a)"><g><path fill="#ddd" d="M32.374 289.128a1 1 0 1 1 2 0 1 1 0 0 1-2 0z"/></g></g><g clip-path="url(#qaz7a)"><g><path fill="#ddd" d="M64.374 289.128a1 1 0 1 1 2 0 1 1 0 0 1-2 0z"/></g></g><g clip-path="url(#qaz7a)"><g><path fill="#ddd" d="M96.374 289.128a1 1 0 1 1 2 0 1 1 0 0 1-2 0z"/></g></g><g clip-path="url(#qaz7a)"><g><path fill="#ddd" d="M128.374 289.128a1 1 0 1 1 2 0 1 1 0 0 1-2 0z"/></g></g><g clip-path="url(#qaz7a)"><g><path fill="#ddd" d="M160.374 289.128a1 1 0 1 1 2 0 1 1 0 0 1-2 0z"/></g></g><g clip-path="url(#qaz7a)"><g><path fill="#ddd" d="M192.374 289.128a1 1 0 1 1 2 0 1 1 0 0 1-2 0z"/></g></g><g clip-path="url(#qaz7a)"><g><path fill="#ddd" d="M224.374 289.128a1 1 0 1 1 2 0 1 1 0 0 1-2 0z"/></g></g><g clip-path="url(#qaz7a)"><g><path fill="#ddd" d="M256.374 289.128a1 1 0 1 1 2 0 1 1 0 0 1-2 0z"/></g></g><g clip-path="url(#qaz7a)"><g><path fill="#ddd" d="M288.374 289.128a1 1 0 1 1 2 0 1 1 0 0 1-2 0z"/></g></g><g clip-path="url(#qaz7a)"><g><path fill="#ddd" d="M320.374 289.128a1 1 0 1 1 2 0 1 1 0 0 1-2 0z"/></g></g><g clip-path="url(#qaz7a)"><g><path fill="#ddd" d="M352.374 289.128a1 1 0 1 1 2 0 1 1 0 0 1-2 0z"/></g></g><g clip-path="url(#qaz7a)"><g><path fill="#ddd" d="M384.374 289.128a1 1 0 1 1 2 0 1 1 0 0 1-2 0z"/></g></g><g clip-path="url(#qaz7a)"><g><path fill="#ddd" d="M416.374 289.128a1 1 0 1 1 2 0 1 1 0 0 1-2 0z"/></g></g><g clip-path="url(#qaz7a)"><g><path fill="#ddd" d="M448.374 289.128a1 1 0 1 1 2 0 1 1 0 0 1-2 0z"/></g></g><g clip-path="url(#qaz7a)"><g><path fill="#ddd" d="M480.374 289.128a1 1 0 1 1 2 0 1 1 0 0 1-2 0z"/></g></g><g clip-path="url(#qaz7a)"><g><path fill="#ddd" d="M512.374 289.128a1 1 0 1 1 2 0 1 1 0 0 1-2 0z"/></g></g><g clip-path="url(#qaz7a)"><g><path fill="#ddd" d="M544.374 289.128a1 1 0 1 1 2 0 1 1 0 0 1-2 0z"/></g></g><g clip-path="url(#qaz7a)"><g><path fill="#ddd" d="M576.374 289.128a1 1 0 1 1 2 0 1 1 0 0 1-2 0z"/></g></g><g clip-path="url(#qaz7a)"><g><path fill="#ddd" d="M.374 321.128a1 1 0 1 1 2 0 1 1 0 0 1-2 0z"/></g></g><g clip-path="url(#qaz7a)"><g><path fill="#ddd" d="M32.374 321.128a1 1 0 1 1 2 0 1 1 0 0 1-2 0z"/></g></g><g clip-path="url(#qaz7a)"><g><path fill="#ddd" d="M64.374 321.128a1 1 0 1 1 2 0 1 1 0 0 1-2 0z"/></g></g><g clip-path="url(#qaz7a)"><g><path fill="#ddd" d="M96.374 321.128a1 1 0 1 1 2 0 1 1 0 0 1-2 0z"/></g></g><g clip-path="url(#qaz7a)"><g><path fill="#ddd" d="M128.374 321.128a1 1 0 1 1 2 0 1 1 0 0 1-2 0z"/></g></g><g clip-path="url(#qaz7a)"><g><path fill="#ddd" d="M160.374 321.128a1 1 0 1 1 2 0 1 1 0 0 1-2 0z"/></g></g><g clip-path="url(#qaz7a)"><g><path fill="#ddd" d="M192.374 321.128a1 1 0 1 1 2 0 1 1 0 0 1-2 0z"/></g></g><g clip-path="url(#qaz7a)"><g><path fill="#ddd" d="M224.374 321.128a1 1 0 1 1 2 0 1 1 0 0 1-2 0z"/></g></g><g clip-path="url(#qaz7a)"><g><path fill="#ddd" d="M256.374 321.128a1 1 0 1 1 2 0 1 1 0 0 1-2 0z"/></g></g><g clip-path="url(#qaz7a)"><g><path fill="#ddd" d="M288.374 321.128a1 1 0 1 1 2 0 1 1 0 0 1-2 0z"/></g></g><g clip-path="url(#qaz7a)"><g><path fill="#ddd" d="M320.374 321.128a1 1 0 1 1 2 0 1 1 0 0 1-2 0z"/></g></g><g clip-path="url(#qaz7a)"><g><path fill="#ddd" d="M352.374 321.128a1 1 0 1 1 2 0 1 1 0 0 1-2 0z"/></g></g><g clip-path="url(#qaz7a)"><g><path fill="#ddd" d="M384.374 321.128a1 1 0 1 1 2 0 1 1 0 0 1-2 0z"/></g></g><g clip-path="url(#qaz7a)"><g><path fill="#ddd" d="M416.374 321.128a1 1 0 1 1 2 0 1 1 0 0 1-2 0z"/></g></g><g clip-path="url(#qaz7a)"><g><path fill="#ddd" d="M448.374 321.128a1 1 0 1 1 2 0 1 1 0 0 1-2 0z"/></g></g><g clip-path="url(#qaz7a)"><g><path fill="#ddd" d="M480.374 321.128a1 1 0 1 1 2 0 1 1 0 0 1-2 0z"/></g></g><g clip-path="url(#qaz7a)"><g><path fill="#ddd" d="M512.374 321.128a1 1 0 1 1 2 0 1 1 0 0 1-2 0z"/></g></g><g clip-path="url(#qaz7a)"><g><path fill="#ddd" d="M544.374 321.128a1 1 0 1 1 2 0 1 1 0 0 1-2 0z"/></g></g><g clip-path="url(#qaz7a)"><g><path fill="#ddd" d="M576.374 321.128a1 1 0 1 1 2 0 1 1 0 0 1-2 0z"/></g></g><g clip-path="url(#qaz7a)"><g><path fill="#ddd" d="M.374 353.128a1 1 0 1 1 2 0 1 1 0 0 1-2 0z"/></g></g><g clip-path="url(#qaz7a)"><g><path fill="#ddd" d="M32.374 353.128a1 1 0 1 1 2 0 1 1 0 0 1-2 0z"/></g></g><g clip-path="url(#qaz7a)"><g><path fill="#ddd" d="M64.374 353.128a1 1 0 1 1 2 0 1 1 0 0 1-2 0z"/></g></g><g clip-path="url(#qaz7a)"><g><path fill="#ddd" d="M96.374 353.128a1 1 0 1 1 2 0 1 1 0 0 1-2 0z"/></g></g><g clip-path="url(#qaz7a)"><g><path fill="#ddd" d="M128.374 353.128a1 1 0 1 1 2 0 1 1 0 0 1-2 0z"/></g></g><g clip-path="url(#qaz7a)"><g><path fill="#ddd" d="M160.374 353.128a1 1 0 1 1 2 0 1 1 0 0 1-2 0z"/></g></g><g clip-path="url(#qaz7a)"><g><path fill="#ddd" d="M192.374 353.128a1 1 0 1 1 2 0 1 1 0 0 1-2 0z"/></g></g><g clip-path="url(#qaz7a)"><g><path fill="#ddd" d="M224.374 353.128a1 1 0 1 1 2 0 1 1 0 0 1-2 0z"/></g></g><g clip-path="url(#qaz7a)"><g><path fill="#ddd" d="M256.374 353.128a1 1 0 1 1 2 0 1 1 0 0 1-2 0z"/></g></g><g clip-path="url(#qaz7a)"><g><path fill="#ddd" d="M288.374 353.128a1 1 0 1 1 2 0 1 1 0 0 1-2 0z"/></g></g><g clip-path="url(#qaz7a)"><g><path fill="#ddd" d="M320.374 353.128a1 1 0 1 1 2 0 1 1 0 0 1-2 0z"/></g></g><g clip-path="url(#qaz7a)"><g><path fill="#ddd" d="M352.374 353.128a1 1 0 1 1 2 0 1 1 0 0 1-2 0z"/></g></g><g clip-path="url(#qaz7a)"><g><path fill="#ddd" d="M384.374 353.128a1 1 0 1 1 2 0 1 1 0 0 1-2 0z"/></g></g><g clip-path="url(#qaz7a)"><g><path fill="#ddd" d="M416.374 353.128a1 1 0 1 1 2 0 1 1 0 0 1-2 0z"/></g></g><g clip-path="url(#qaz7a)"><g><path fill="#ddd" d="M448.374 353.128a1 1 0 1 1 2 0 1 1 0 0 1-2 0z"/></g></g><g clip-path="url(#qaz7a)"><g><path fill="#ddd" d="M480.374 353.128a1 1 0 1 1 2 0 1 1 0 0 1-2 0z"/></g></g><g clip-path="url(#qaz7a)"><g><path fill="#ddd" d="M512.374 353.128a1 1 0 1 1 2 0 1 1 0 0 1-2 0z"/></g></g><g clip-path="url(#qaz7a)"><g><path fill="#ddd" d="M544.374 353.128a1 1 0 1 1 2 0 1 1 0 0 1-2 0z"/></g></g><g clip-path="url(#qaz7a)"><g><path fill="#ddd" d="M576.374 353.128a1 1 0 1 1 2 0 1 1 0 0 1-2 0z"/></g></g><g clip-path="url(#qaz7a)"><g><path fill="#ddd" d="M.374 385.128a1 1 0 1 1 2 0 1 1 0 0 1-2 0z"/></g></g><g clip-path="url(#qaz7a)"><g><path fill="#ddd" d="M32.374 385.128a1 1 0 1 1 2 0 1 1 0 0 1-2 0z"/></g></g><g clip-path="url(#qaz7a)"><g><path fill="#ddd" d="M64.374 385.128a1 1 0 1 1 2 0 1 1 0 0 1-2 0z"/></g></g><g clip-path="url(#qaz7a)"><g><path fill="#ddd" d="M96.374 385.128a1 1 0 1 1 2 0 1 1 0 0 1-2 0z"/></g></g><g clip-path="url(#qaz7a)"><g><path fill="#ddd" d="M128.374 385.128a1 1 0 1 1 2 0 1 1 0 0 1-2 0z"/></g></g><g clip-path="url(#qaz7a)"><g><path fill="#ddd" d="M160.374 385.128a1 1 0 1 1 2 0 1 1 0 0 1-2 0z"/></g></g><g clip-path="url(#qaz7a)"><g><path fill="#ddd" d="M192.374 385.128a1 1 0 1 1 2 0 1 1 0 0 1-2 0z"/></g></g><g clip-path="url(#qaz7a)"><g><path fill="#ddd" d="M224.374 385.128a1 1 0 1 1 2 0 1 1 0 0 1-2 0z"/></g></g><g clip-path="url(#qaz7a)"><g><path fill="#ddd" d="M256.374 385.128a1 1 0 1 1 2 0 1 1 0 0 1-2 0z"/></g></g><g clip-path="url(#qaz7a)"><g><path fill="#ddd" d="M288.374 385.128a1 1 0 1 1 2 0 1 1 0 0 1-2 0z"/></g></g><g clip-path="url(#qaz7a)"><g><path fill="#ddd" d="M320.374 385.128a1 1 0 1 1 2 0 1 1 0 0 1-2 0z"/></g></g><g clip-path="url(#qaz7a)"><g><path fill="#ddd" d="M352.374 385.128a1 1 0 1 1 2 0 1 1 0 0 1-2 0z"/></g></g><g clip-path="url(#qaz7a)"><g><path fill="#ddd" d="M384.374 385.128a1 1 0 1 1 2 0 1 1 0 0 1-2 0z"/></g></g><g clip-path="url(#qaz7a)"><g><path fill="#ddd" d="M416.374 385.128a1 1 0 1 1 2 0 1 1 0 0 1-2 0z"/></g></g><g clip-path="url(#qaz7a)"><g><path fill="#ddd" d="M448.374 385.128a1 1 0 1 1 2 0 1 1 0 0 1-2 0z"/></g></g><g clip-path="url(#qaz7a)"><g><path fill="#ddd" d="M480.374 385.128a1 1 0 1 1 2 0 1 1 0 0 1-2 0z"/></g></g><g clip-path="url(#qaz7a)"><g><path fill="#ddd" d="M512.374 385.128a1 1 0 1 1 2 0 1 1 0 0 1-2 0z"/></g></g><g clip-path="url(#qaz7a)"><g><path fill="#ddd" d="M544.374 385.128a1 1 0 1 1 2 0 1 1 0 0 1-2 0z"/></g></g><g clip-path="url(#qaz7a)"><g><path fill="#ddd" d="M576.374 385.128a1 1 0 1 1 2 0 1 1 0 0 1-2 0z"/></g></g><g clip-path="url(#qaz7a)"><g><path fill="#ddd" d="M.374 417.128a1 1 0 1 1 2 0 1 1 0 0 1-2 0z"/></g></g><g clip-path="url(#qaz7a)"><g><path fill="#ddd" d="M32.374 417.128a1 1 0 1 1 2 0 1 1 0 0 1-2 0z"/></g></g><g clip-path="url(#qaz7a)"><g><path fill="#ddd" d="M64.374 417.128a1 1 0 1 1 2 0 1 1 0 0 1-2 0z"/></g></g><g clip-path="url(#qaz7a)"><g><path fill="#ddd" d="M96.374 417.128a1 1 0 1 1 2 0 1 1 0 0 1-2 0z"/></g></g><g clip-path="url(#qaz7a)"><g><path fill="#ddd" d="M128.374 417.128a1 1 0 1 1 2 0 1 1 0 0 1-2 0z"/></g></g><g clip-path="url(#qaz7a)"><g><path fill="#ddd" d="M160.374 417.128a1 1 0 1 1 2 0 1 1 0 0 1-2 0z"/></g></g><g clip-path="url(#qaz7a)"><g><path fill="#ddd" d="M192.374 417.128a1 1 0 1 1 2 0 1 1 0 0 1-2 0z"/></g></g><g clip-path="url(#qaz7a)"><g><path fill="#ddd" d="M224.374 417.128a1 1 0 1 1 2 0 1 1 0 0 1-2 0z"/></g></g><g clip-path="url(#qaz7a)"><g><path fill="#ddd" d="M256.374 417.128a1 1 0 1 1 2 0 1 1 0 0 1-2 0z"/></g></g><g clip-path="url(#qaz7a)"><g><path fill="#ddd" d="M288.374 417.128a1 1 0 1 1 2 0 1 1 0 0 1-2 0z"/></g></g><g clip-path="url(#qaz7a)"><g><path fill="#ddd" d="M320.374 417.128a1 1 0 1 1 2 0 1 1 0 0 1-2 0z"/></g></g><g clip-path="url(#qaz7a)"><g><path fill="#ddd" d="M352.374 417.128a1 1 0 1 1 2 0 1 1 0 0 1-2 0z"/></g></g><g clip-path="url(#qaz7a)"><g><path fill="#ddd" d="M384.374 417.128a1 1 0 1 1 2 0 1 1 0 0 1-2 0z"/></g></g><g clip-path="url(#qaz7a)"><g><path fill="#ddd" d="M416.374 417.128a1 1 0 1 1 2 0 1 1 0 0 1-2 0z"/></g></g><g clip-path="url(#qaz7a)"><g><path fill="#ddd" d="M448.374 417.128a1 1 0 1 1 2 0 1 1 0 0 1-2 0z"/></g></g><g clip-path="url(#qaz7a)"><g><path fill="#ddd" d="M480.374 417.128a1 1 0 1 1 2 0 1 1 0 0 1-2 0z"/></g></g><g clip-path="url(#qaz7a)"><g><path fill="#ddd" d="M512.374 417.128a1 1 0 1 1 2 0 1 1 0 0 1-2 0z"/></g></g><g clip-path="url(#qaz7a)"><g><path fill="#ddd" d="M544.374 417.128a1 1 0 1 1 2 0 1 1 0 0 1-2 0z"/></g></g><g clip-path="url(#qaz7a)"><g><path fill="#ddd" d="M576.374 417.128a1 1 0 1 1 2 0 1 1 0 0 1-2 0z"/></g></g><g clip-path="url(#qaz7a)"><g><path fill="#ddd" d="M.374 449.128a1 1 0 1 1 2 0 1 1 0 0 1-2 0z"/></g></g><g clip-path="url(#qaz7a)"><g><path fill="#ddd" d="M32.374 449.128a1 1 0 1 1 2 0 1 1 0 0 1-2 0z"/></g></g><g clip-path="url(#qaz7a)"><g><path fill="#ddd" d="M64.374 449.128a1 1 0 1 1 2 0 1 1 0 0 1-2 0z"/></g></g><g clip-path="url(#qaz7a)"><g><path fill="#ddd" d="M96.374 449.128a1 1 0 1 1 2 0 1 1 0 0 1-2 0z"/></g></g><g clip-path="url(#qaz7a)"><g><path fill="#ddd" d="M128.374 449.128a1 1 0 1 1 2 0 1 1 0 0 1-2 0z"/></g></g><g clip-path="url(#qaz7a)"><g><path fill="#ddd" d="M160.374 449.128a1 1 0 1 1 2 0 1 1 0 0 1-2 0z"/></g></g><g clip-path="url(#qaz7a)"><g><path fill="#ddd" d="M192.374 449.128a1 1 0 1 1 2 0 1 1 0 0 1-2 0z"/></g></g><g clip-path="url(#qaz7a)"><g><path fill="#ddd" d="M224.374 449.128a1 1 0 1 1 2 0 1 1 0 0 1-2 0z"/></g></g><g clip-path="url(#qaz7a)"><g><path fill="#ddd" d="M256.374 449.128a1 1 0 1 1 2 0 1 1 0 0 1-2 0z"/></g></g><g clip-path="url(#qaz7a)"><g><path fill="#ddd" d="M288.374 449.128a1 1 0 1 1 2 0 1 1 0 0 1-2 0z"/></g></g><g clip-path="url(#qaz7a)"><g><path fill="#ddd" d="M320.374 449.128a1 1 0 1 1 2 0 1 1 0 0 1-2 0z"/></g></g><g clip-path="url(#qaz7a)"><g><path fill="#ddd" d="M352.374 449.128a1 1 0 1 1 2 0 1 1 0 0 1-2 0z"/></g></g><g clip-path="url(#qaz7a)"><g><path fill="#ddd" d="M384.374 449.128a1 1 0 1 1 2 0 1 1 0 0 1-2 0z"/></g></g><g clip-path="url(#qaz7a)"><g><path fill="#ddd" d="M416.374 449.128a1 1 0 1 1 2 0 1 1 0 0 1-2 0z"/></g></g><g clip-path="url(#qaz7a)"><g><path fill="#ddd" d="M448.374 449.128a1 1 0 1 1 2 0 1 1 0 0 1-2 0z"/></g></g><g clip-path="url(#qaz7a)"><g><path fill="#ddd" d="M480.374 449.128a1 1 0 1 1 2 0 1 1 0 0 1-2 0z"/></g></g><g clip-path="url(#qaz7a)"><g><path fill="#ddd" d="M512.374 449.128a1 1 0 1 1 2 0 1 1 0 0 1-2 0z"/></g></g><g clip-path="url(#qaz7a)"><g><path fill="#ddd" d="M544.374 449.128a1 1 0 1 1 2 0 1 1 0 0 1-2 0z"/></g></g><g clip-path="url(#qaz7a)"><g><path fill="#ddd" d="M576.374 449.128a1 1 0 1 1 2 0 1 1 0 0 1-2 0z"/></g></g><g clip-path="url(#qaz7a)"><g><path fill="#ddd" d="M.374 481.128a1 1 0 1 1 2 0 1 1 0 0 1-2 0z"/></g></g><g clip-path="url(#qaz7a)"><g><path fill="#ddd" d="M32.374 481.128a1 1 0 1 1 2 0 1 1 0 0 1-2 0z"/></g></g><g clip-path="url(#qaz7a)"><g><path fill="#ddd" d="M64.374 481.128a1 1 0 1 1 2 0 1 1 0 0 1-2 0z"/></g></g><g clip-path="url(#qaz7a)"><g><path fill="#ddd" d="M96.374 481.128a1 1 0 1 1 2 0 1 1 0 0 1-2 0z"/></g></g><g clip-path="url(#qaz7a)"><g><path fill="#ddd" d="M128.374 481.128a1 1 0 1 1 2 0 1 1 0 0 1-2 0z"/></g></g><g clip-path="url(#qaz7a)"><g><path fill="#ddd" d="M160.374 481.128a1 1 0 1 1 2 0 1 1 0 0 1-2 0z"/></g></g><g clip-path="url(#qaz7a)"><g><path fill="#ddd" d="M192.374 481.128a1 1 0 1 1 2 0 1 1 0 0 1-2 0z"/></g></g><g clip-path="url(#qaz7a)"><g><path fill="#ddd" d="M224.374 481.128a1 1 0 1 1 2 0 1 1 0 0 1-2 0z"/></g></g><g clip-path="url(#qaz7a)"><g><path fill="#ddd" d="M256.374 481.128a1 1 0 1 1 2 0 1 1 0 0 1-2 0z"/></g></g><g clip-path="url(#qaz7a)"><g><path fill="#ddd" d="M288.374 481.128a1 1 0 1 1 2 0 1 1 0 0 1-2 0z"/></g></g><g clip-path="url(#qaz7a)"><g><path fill="#ddd" d="M320.374 481.128a1 1 0 1 1 2 0 1 1 0 0 1-2 0z"/></g></g><g clip-path="url(#qaz7a)"><g><path fill="#ddd" d="M352.374 481.128a1 1 0 1 1 2 0 1 1 0 0 1-2 0z"/></g></g><g clip-path="url(#qaz7a)"><g><path fill="#ddd" d="M384.374 481.128a1 1 0 1 1 2 0 1 1 0 0 1-2 0z"/></g></g><g clip-path="url(#qaz7a)"><g><path fill="#ddd" d="M416.374 481.128a1 1 0 1 1 2 0 1 1 0 0 1-2 0z"/></g></g><g clip-path="url(#qaz7a)"><g><path fill="#ddd" d="M448.374 481.128a1 1 0 1 1 2 0 1 1 0 0 1-2 0z"/></g></g><g clip-path="url(#qaz7a)"><g><path fill="#ddd" d="M480.374 481.128a1 1 0 1 1 2 0 1 1 0 0 1-2 0z"/></g></g><g clip-path="url(#qaz7a)"><g><path fill="#ddd" d="M512.374 481.128a1 1 0 1 1 2 0 1 1 0 0 1-2 0z"/></g></g><g clip-path="url(#qaz7a)"><g><path fill="#ddd" d="M544.374 481.128a1 1 0 1 1 2 0 1 1 0 0 1-2 0z"/></g></g><g clip-path="url(#qaz7a)"><g><path fill="#ddd" d="M576.374 481.128a1 1 0 1 1 2 0 1 1 0 0 1-2 0z"/></g></g><g clip-path="url(#qaz7a)"><g><path fill="#ddd" d="M.374 513.128a1 1 0 1 1 2 0 1 1 0 0 1-2 0z"/></g></g><g clip-path="url(#qaz7a)"><g><path fill="#ddd" d="M32.374 513.128a1 1 0 1 1 2 0 1 1 0 0 1-2 0z"/></g></g><g clip-path="url(#qaz7a)"><g><path fill="#ddd" d="M64.374 513.128a1 1 0 1 1 2 0 1 1 0 0 1-2 0z"/></g></g><g clip-path="url(#qaz7a)"><g><path fill="#ddd" d="M96.374 513.128a1 1 0 1 1 2 0 1 1 0 0 1-2 0z"/></g></g><g clip-path="url(#qaz7a)"><g><path fill="#ddd" d="M128.374 513.128a1 1 0 1 1 2 0 1 1 0 0 1-2 0z"/></g></g><g clip-path="url(#qaz7a)"><g><path fill="#ddd" d="M160.374 513.128a1 1 0 1 1 2 0 1 1 0 0 1-2 0z"/></g></g><g clip-path="url(#qaz7a)"><g><path fill="#ddd" d="M192.374 513.128a1 1 0 1 1 2 0 1 1 0 0 1-2 0z"/></g></g><g clip-path="url(#qaz7a)"><g><path fill="#ddd" d="M224.374 513.128a1 1 0 1 1 2 0 1 1 0 0 1-2 0z"/></g></g><g clip-path="url(#qaz7a)"><g><path fill="#ddd" d="M256.374 513.128a1 1 0 1 1 2 0 1 1 0 0 1-2 0z"/></g></g><g clip-path="url(#qaz7a)"><g><path fill="#ddd" d="M288.374 513.128a1 1 0 1 1 2 0 1 1 0 0 1-2 0z"/></g></g><g clip-path="url(#qaz7a)"><g><path fill="#ddd" d="M320.374 513.128a1 1 0 1 1 2 0 1 1 0 0 1-2 0z"/></g></g><g clip-path="url(#qaz7a)"><g><path fill="#ddd" d="M352.374 513.128a1 1 0 1 1 2 0 1 1 0 0 1-2 0z"/></g></g><g clip-path="url(#qaz7a)"><g><path fill="#ddd" d="M384.374 513.128a1 1 0 1 1 2 0 1 1 0 0 1-2 0z"/></g></g><g clip-path="url(#qaz7a)"><g><path fill="#ddd" d="M416.374 513.128a1 1 0 1 1 2 0 1 1 0 0 1-2 0z"/></g></g><g clip-path="url(#qaz7a)"><g><path fill="#ddd" d="M448.374 513.128a1 1 0 1 1 2 0 1 1 0 0 1-2 0z"/></g></g><g clip-path="url(#qaz7a)"><g><path fill="#ddd" d="M480.374 513.128a1 1 0 1 1 2 0 1 1 0 0 1-2 0z"/></g></g><g clip-path="url(#qaz7a)"><g><path fill="#ddd" d="M512.374 513.128a1 1 0 1 1 2 0 1 1 0 0 1-2 0z"/></g></g><g clip-path="url(#qaz7a)"><g><path fill="#ddd" d="M544.374 513.128a1 1 0 1 1 2 0 1 1 0 0 1-2 0z"/></g></g><g clip-path="url(#qaz7a)"><g><path fill="#ddd" d="M576.374 513.128a1 1 0 1 1 2 0 1 1 0 0 1-2 0z"/></g></g><g clip-path="url(#qaz7a)"><g><path fill="#ddd" d="M.374 545.128a1 1 0 1 1 2 0 1 1 0 0 1-2 0z"/></g></g><g clip-path="url(#qaz7a)"><g><path fill="#ddd" d="M32.374 545.128a1 1 0 1 1 2 0 1 1 0 0 1-2 0z"/></g></g><g clip-path="url(#qaz7a)"><g><path fill="#ddd" d="M64.374 545.128a1 1 0 1 1 2 0 1 1 0 0 1-2 0z"/></g></g><g clip-path="url(#qaz7a)"><g><path fill="#ddd" d="M96.374 545.128a1 1 0 1 1 2 0 1 1 0 0 1-2 0z"/></g></g><g clip-path="url(#qaz7a)"><g><path fill="#ddd" d="M128.374 545.128a1 1 0 1 1 2 0 1 1 0 0 1-2 0z"/></g></g><g clip-path="url(#qaz7a)"><g><path fill="#ddd" d="M160.374 545.128a1 1 0 1 1 2 0 1 1 0 0 1-2 0z"/></g></g><g clip-path="url(#qaz7a)"><g><path fill="#ddd" d="M192.374 545.128a1 1 0 1 1 2 0 1 1 0 0 1-2 0z"/></g></g><g clip-path="url(#qaz7a)"><g><path fill="#ddd" d="M224.374 545.128a1 1 0 1 1 2 0 1 1 0 0 1-2 0z"/></g></g><g clip-path="url(#qaz7a)"><g><path fill="#ddd" d="M256.374 545.128a1 1 0 1 1 2 0 1 1 0 0 1-2 0z"/></g></g><g clip-path="url(#qaz7a)"><g><path fill="#ddd" d="M288.374 545.128a1 1 0 1 1 2 0 1 1 0 0 1-2 0z"/></g></g><g clip-path="url(#qaz7a)"><g><path fill="#ddd" d="M320.374 545.128a1 1 0 1 1 2 0 1 1 0 0 1-2 0z"/></g></g><g clip-path="url(#qaz7a)"><g><path fill="#ddd" d="M352.374 545.128a1 1 0 1 1 2 0 1 1 0 0 1-2 0z"/></g></g><g clip-path="url(#qaz7a)"><g><path fill="#ddd" d="M384.374 545.128a1 1 0 1 1 2 0 1 1 0 0 1-2 0z"/></g></g><g clip-path="url(#qaz7a)"><g><path fill="#ddd" d="M416.374 545.128a1 1 0 1 1 2 0 1 1 0 0 1-2 0z"/></g></g><g clip-path="url(#qaz7a)"><g><path fill="#ddd" d="M448.374 545.128a1 1 0 1 1 2 0 1 1 0 0 1-2 0z"/></g></g><g clip-path="url(#qaz7a)"><g><path fill="#ddd" d="M480.374 545.128a1 1 0 1 1 2 0 1 1 0 0 1-2 0z"/></g></g><g clip-path="url(#qaz7a)"><g><path fill="#ddd" d="M512.374 545.128a1 1 0 1 1 2 0 1 1 0 0 1-2 0z"/></g></g><g clip-path="url(#qaz7a)"><g><path fill="#ddd" d="M544.374 545.128a1 1 0 1 1 2 0 1 1 0 0 1-2 0z"/></g></g><g clip-path="url(#qaz7a)"><g><path fill="#ddd" d="M576.374 545.128a1 1 0 1 1 2 0 1 1 0 0 1-2 0z"/></g></g><g clip-path="url(#qaz7a)"><g><path fill="#ddd" d="M.374 577.128a1 1 0 1 1 2 0 1 1 0 0 1-2 0z"/></g></g><g clip-path="url(#qaz7a)"><g><path fill="#ddd" d="M32.374 577.128a1 1 0 1 1 2 0 1 1 0 0 1-2 0z"/></g></g><g clip-path="url(#qaz7a)"><g><path fill="#ddd" d="M64.374 577.128a1 1 0 1 1 2 0 1 1 0 0 1-2 0z"/></g></g><g clip-path="url(#qaz7a)"><g><path fill="#ddd" d="M96.374 577.128a1 1 0 1 1 2 0 1 1 0 0 1-2 0z"/></g></g><g clip-path="url(#qaz7a)"><g><path fill="#ddd" d="M128.374 577.128a1 1 0 1 1 2 0 1 1 0 0 1-2 0z"/></g></g><g clip-path="url(#qaz7a)"><g><path fill="#ddd" d="M160.374 577.128a1 1 0 1 1 2 0 1 1 0 0 1-2 0z"/></g></g><g clip-path="url(#qaz7a)"><g><path fill="#ddd" d="M192.374 577.128a1 1 0 1 1 2 0 1 1 0 0 1-2 0z"/></g></g><g clip-path="url(#qaz7a)"><g><path fill="#ddd" d="M224.374 577.128a1 1 0 1 1 2 0 1 1 0 0 1-2 0z"/></g></g><g clip-path="url(#qaz7a)"><g><path fill="#ddd" d="M256.374 577.128a1 1 0 1 1 2 0 1 1 0 0 1-2 0z"/></g></g><g clip-path="url(#qaz7a)"><g><path fill="#ddd" d="M288.374 577.128a1 1 0 1 1 2 0 1 1 0 0 1-2 0z"/></g></g><g clip-path="url(#qaz7a)"><g><path fill="#ddd" d="M320.374 577.128a1 1 0 1 1 2 0 1 1 0 0 1-2 0z"/></g></g><g clip-path="url(#qaz7a)"><g><path fill="#ddd" d="M352.374 577.128a1 1 0 1 1 2 0 1 1 0 0 1-2 0z"/></g></g><g clip-path="url(#qaz7a)"><g><path fill="#ddd" d="M384.374 577.128a1 1 0 1 1 2 0 1 1 0 0 1-2 0z"/></g></g><g clip-path="url(#qaz7a)"><g><path fill="#ddd" d="M416.374 577.128a1 1 0 1 1 2 0 1 1 0 0 1-2 0z"/></g></g><g clip-path="url(#qaz7a)"><g><path fill="#ddd" d="M448.374 577.128a1 1 0 1 1 2 0 1 1 0 0 1-2 0z"/></g></g><g clip-path="url(#qaz7a)"><g><path fill="#ddd" d="M480.374 577.128a1 1 0 1 1 2 0 1 1 0 0 1-2 0z"/></g></g><g clip-path="url(#qaz7a)"><g><path fill="#ddd" d="M512.374 577.128a1 1 0 1 1 2 0 1 1 0 0 1-2 0z"/></g></g><g clip-path="url(#qaz7a)"><g><path fill="#ddd" d="M544.374 577.128a1 1 0 1 1 2 0 1 1 0 0 1-2 0z"/></g></g><g clip-path="url(#qaz7a)"><g><path fill="#ddd" d="M576.374 577.128a1 1 0 1 1 2 0 1 1 0 0 1-2 0z"/></g></g><g clip-path="url(#qaz7a)"><g><path fill="#ddd" d="M.374 609.128a1 1 0 1 1 2 0 1 1 0 0 1-2 0z"/></g></g><g clip-path="url(#qaz7a)"><g><path fill="#ddd" d="M32.374 609.128a1 1 0 1 1 2 0 1 1 0 0 1-2 0z"/></g></g><g clip-path="url(#qaz7a)"><g><path fill="#ddd" d="M64.374 609.128a1 1 0 1 1 2 0 1 1 0 0 1-2 0z"/></g></g><g clip-path="url(#qaz7a)"><g><path fill="#ddd" d="M96.374 609.128a1 1 0 1 1 2 0 1 1 0 0 1-2 0z"/></g></g><g clip-path="url(#qaz7a)"><g><path fill="#ddd" d="M128.374 609.128a1 1 0 1 1 2 0 1 1 0 0 1-2 0z"/></g></g><g clip-path="url(#qaz7a)"><g><path fill="#ddd" d="M160.374 609.128a1 1 0 1 1 2 0 1 1 0 0 1-2 0z"/></g></g><g clip-path="url(#qaz7a)"><g><path fill="#ddd" d="M192.374 609.128a1 1 0 1 1 2 0 1 1 0 0 1-2 0z"/></g></g><g clip-path="url(#qaz7a)"><g><path fill="#ddd" d="M224.374 609.128a1 1 0 1 1 2 0 1 1 0 0 1-2 0z"/></g></g><g clip-path="url(#qaz7a)"><g><path fill="#ddd" d="M256.374 609.128a1 1 0 1 1 2 0 1 1 0 0 1-2 0z"/></g></g><g clip-path="url(#qaz7a)"><g><path fill="#ddd" d="M288.374 609.128a1 1 0 1 1 2 0 1 1 0 0 1-2 0z"/></g></g><g clip-path="url(#qaz7a)"><g><path fill="#ddd" d="M320.374 609.128a1 1 0 1 1 2 0 1 1 0 0 1-2 0z"/></g></g><g clip-path="url(#qaz7a)"><g><path fill="#ddd" d="M352.374 609.128a1 1 0 1 1 2 0 1 1 0 0 1-2 0z"/></g></g><g clip-path="url(#qaz7a)"><g><path fill="#ddd" d="M384.374 609.128a1 1 0 1 1 2 0 1 1 0 0 1-2 0z"/></g></g><g clip-path="url(#qaz7a)"><g><path fill="#ddd" d="M416.374 609.128a1 1 0 1 1 2 0 1 1 0 0 1-2 0z"/></g></g><g clip-path="url(#qaz7a)"><g><path fill="#ddd" d="M448.374 609.128a1 1 0 1 1 2 0 1 1 0 0 1-2 0z"/></g></g><g clip-path="url(#qaz7a)"><g><path fill="#ddd" d="M480.374 609.128a1 1 0 1 1 2 0 1 1 0 0 1-2 0z"/></g></g><g clip-path="url(#qaz7a)"><g><path fill="#ddd" d="M512.374 609.128a1 1 0 1 1 2 0 1 1 0 0 1-2 0z"/></g></g><g clip-path="url(#qaz7a)"><g><path fill="#ddd" d="M544.374 609.128a1 1 0 1 1 2 0 1 1 0 0 1-2 0z"/></g></g><g clip-path="url(#qaz7a)"><g><path fill="#ddd" d="M576.374 609.128a1 1 0 1 1 2 0 1 1 0 0 1-2 0z"/></g></g><g clip-path="url(#qaz7a)"><g><path fill="#ddd" d="M.374 641.128a1 1 0 1 1 2 0 1 1 0 0 1-2 0z"/></g></g><g clip-path="url(#qaz7a)"><g><path fill="#ddd" d="M32.374 641.128a1 1 0 1 1 2 0 1 1 0 0 1-2 0z"/></g></g><g clip-path="url(#qaz7a)"><g><path fill="#ddd" d="M64.374 641.128a1 1 0 1 1 2 0 1 1 0 0 1-2 0z"/></g></g><g clip-path="url(#qaz7a)"><g><path fill="#ddd" d="M96.374 641.128a1 1 0 1 1 2 0 1 1 0 0 1-2 0z"/></g></g><g clip-path="url(#qaz7a)"><g><path fill="#ddd" d="M128.374 641.128a1 1 0 1 1 2 0 1 1 0 0 1-2 0z"/></g></g><g clip-path="url(#qaz7a)"><g><path fill="#ddd" d="M160.374 641.128a1 1 0 1 1 2 0 1 1 0 0 1-2 0z"/></g></g><g clip-path="url(#qaz7a)"><g><path fill="#ddd" d="M192.374 641.128a1 1 0 1 1 2 0 1 1 0 0 1-2 0z"/></g></g><g clip-path="url(#qaz7a)"><g><path fill="#ddd" d="M224.374 641.128a1 1 0 1 1 2 0 1 1 0 0 1-2 0z"/></g></g><g clip-path="url(#qaz7a)"><g><path fill="#ddd" d="M256.374 641.128a1 1 0 1 1 2 0 1 1 0 0 1-2 0z"/></g></g><g clip-path="url(#qaz7a)"><g><path fill="#ddd" d="M288.374 641.128a1 1 0 1 1 2 0 1 1 0 0 1-2 0z"/></g></g><g clip-path="url(#qaz7a)"><g><path fill="#ddd" d="M320.374 641.128a1 1 0 1 1 2 0 1 1 0 0 1-2 0z"/></g></g><g clip-path="url(#qaz7a)"><g><path fill="#ddd" d="M352.374 641.128a1 1 0 1 1 2 0 1 1 0 0 1-2 0z"/></g></g><g clip-path="url(#qaz7a)"><g><path fill="#ddd" d="M384.374 641.128a1 1 0 1 1 2 0 1 1 0 0 1-2 0z"/></g></g><g clip-path="url(#qaz7a)"><g><path fill="#ddd" d="M416.374 641.128a1 1 0 1 1 2 0 1 1 0 0 1-2 0z"/></g></g><g clip-path="url(#qaz7a)"><g><path fill="#ddd" d="M448.374 641.128a1 1 0 1 1 2 0 1 1 0 0 1-2 0z"/></g></g><g clip-path="url(#qaz7a)"><g><path fill="#ddd" d="M480.374 641.128a1 1 0 1 1 2 0 1 1 0 0 1-2 0z"/></g></g><g clip-path="url(#qaz7a)"><g><path fill="#ddd" d="M512.374 641.128a1 1 0 1 1 2 0 1 1 0 0 1-2 0z"/></g></g><g clip-path="url(#qaz7a)"><g><path fill="#ddd" d="M544.374 641.128a1 1 0 1 1 2 0 1 1 0 0 1-2 0z"/></g></g><g clip-path="url(#qaz7a)"><g><path fill="#ddd" d="M576.374 641.128a1 1 0 1 1 2 0 1 1 0 0 1-2 0z"/></g></g></g></g></svg>