<svg xmlns="http://www.w3.org/2000/svg" xmlns:xlink="http://www.w3.org/1999/xlink" width="60" height="60" viewBox="0 0 60 60"><defs><radialGradient id="a" cx="0.5" cy="0.5" r="0.978" gradientTransform="matrix(1, 0.019, -0.018, 0.951, 0.009, 0.015)" gradientUnits="objectBoundingBox"><stop offset="0" stop-color="#f894f8"/><stop offset="1" stop-color="#8400ac"/></radialGradient><filter id="b" x="10" y="10" width="50" height="50" filterUnits="userSpaceOnUse"><feOffset dx="5" dy="5" input="SourceAlpha"/><feGaussianBlur stdDeviation="5" result="c"/><feFlood flood-opacity="0.204"/><feComposite operator="in" in2="c"/><feComposite in="SourceGraphic"/></filter><radialGradient id="d" cx="0.5" cy="0.5" r="0.817" gradientTransform="matrix(1, 0, 0, 1, 0, 0)" xlink:href="#a"/></defs><g transform="translate(-1365 -1763)"><g transform="translate(586.114 2365.819) rotate(-90)"><g transform="matrix(0, 1, -1, 0, 602.82, 778.89)" filter="url(#b)"><path d="M0,0H20a0,0,0,0,1,0,0V20a0,0,0,0,1,0,0h0A20,20,0,0,1,0,0V0A0,0,0,0,1,0,0Z" transform="translate(20 40) rotate(-90)" fill="url(#a)"/></g></g><rect width="20" height="20" transform="translate(1365 1763)" fill="url(#d)"/></g></svg>